<?xml version="1.0" encoding="utf-8"?>
<!-- Generator: Adobe Illustrator 24.1.0, SVG Export Plug-In . SVG Version: 6.00 Build 0)  -->
<svg version="1.1" id="Layer_1" xmlns="http://www.w3.org/2000/svg" xmlns:xlink="http://www.w3.org/1999/xlink" x="0px" y="0px"
	 viewBox="0 0 16 16" style="enable-background:new 0 0 16 16;" xml:space="preserve">
<style type="text/css">
	.st0{fill:none;stroke:#FFFFFF;stroke-width:2;stroke-linecap:round;stroke-linejoin:round;}
	.st1{fill:#FFFFFF;}
</style>
<path class="st0" d="M14.5,8"/>
<path class="st1" d="M14.5,8"/>
<g>
	<g transform="translate(-2.000000, -2.000000)">
		<g>
			<path class="st1" d="M11.7,6.1C11.8,6,12,6,12.1,6.1l0,0l1.8,1.8C14,8,14,8.2,13.9,8.3l0,0l-5,5L6.4,14C6.2,14,6,13.8,6,13.6l0,0
				c0,0,0.6-2.5,0.7-2.5l0,0L11.7,6.1z M10.7,7.9l-3.6,3.6l-0.4,1.8l1.8-0.4l3.6-3.6L10.7,7.9z M11.9,6.7l-0.8,0.8l1.4,1.4l0.8-0.8
				L11.9,6.7z"/>
		</g>
		<path class="st1" d="M6.6,11.2"/>
	</g>
</g>
</svg>
